<?xml version="1.0" encoding="UTF-8"?>
<svg version="1.1" xmlns="http://www.w3.org/2000/svg" width="512" height="512">
<path d="M0 0 C1.24416183 -0.00511093 2.48832367 -0.01022186 3.77018738 -0.01548767 C7.14236724 -0.02690398 10.51429911 -0.02947378 13.88648057 -0.02692437 C16.72139316 -0.02584392 19.55628384 -0.03076521 22.39119166 -0.03552979 C29.09023867 -0.04657197 35.78922958 -0.0470926 42.48828125 -0.04101562 C49.35418025 -0.03498218 56.21987399 -0.04728301 63.085738 -0.06858569 C69.02167065 -0.08631253 74.95753862 -0.09218569 80.89349669 -0.08894795 C84.42061473 -0.08715226 87.94758637 -0.08959651 91.47467995 -0.10366249 C116.36721358 -0.19454549 138.84388927 0.76473461 158.84448242 17.2746582 C159.62307617 17.87922852 160.40166992 18.48379883 161.20385742 19.10668945 C174.46013471 29.96312344 183.76700139 47.32625227 185.84448242 64.2746582 C186.33658985 72.6991986 186.12836427 81.15344315 186.03198242 89.5871582 C186.01690866 91.88858174 186.00322502 94.19001482 185.9909668 96.49145508 C185.95817426 102.08606709 185.90818854 107.68031723 185.84448242 113.2746582 C186.41101595 113.27189282 186.97754948 113.26912745 187.56125069 113.26627827 C201.35794066 113.19997228 215.15460265 113.15054682 228.95141792 113.11922169 C235.62352289 113.10356383 242.29549054 113.08232306 248.9675293 113.04833984 C255.40603644 113.0157512 261.84443296 112.99780608 268.2830162 112.99002647 C270.7398134 112.98448213 273.19660452 112.97365547 275.65335464 112.95746803 C279.093662 112.93570088 282.53351185 112.93269105 285.97387695 112.93408203 C286.99023727 112.9232962 288.0065976 112.91251038 289.05375671 112.90139771 C294.40553303 112.92482186 298.24452256 113.21649382 302.84448242 116.2746582 C306.97617175 120.85301664 307.96914265 123.29129383 307.9787035 129.39174271 C307.98316134 130.70526474 307.98761919 132.01878678 307.99221212 133.37211251 C307.99212281 134.84379849 307.99193294 136.31548446 307.99165344 137.78717041 C307.99495097 139.33967104 307.9986763 140.89217081 308.00279492 142.44466949 C308.01283565 146.72696172 308.01653504 151.00923995 308.01918423 155.29154229 C308.02308115 159.90380467 308.03265989 164.51605589 308.04139709 169.12831116 C308.06117875 180.2748012 308.07122982 191.42129218 308.08012488 202.5677954 C308.08450496 207.81299691 308.08987249 213.05819742 308.09511375 218.30339813 C308.11212765 235.73297542 308.12662275 253.16255207 308.1338625 270.59213638 C308.13577248 275.11733247 308.1376928 279.64252855 308.13964844 284.16772461 C308.14013218 285.29248151 308.14061592 286.41723842 308.14111432 287.57607886 C308.14941804 305.80430106 308.17476003 324.0324577 308.20722912 342.26065126 C308.24027104 360.96245011 308.25830865 379.66421561 308.26150674 398.36604381 C308.26367448 408.87158569 308.27246174 419.37703198 308.29796791 429.88254547 C308.31963577 438.82795803 308.32774466 447.7732518 308.31800113 456.71868762 C308.31344505 461.28448849 308.31541828 465.85004405 308.33476257 470.41581154 C308.35231407 474.59444119 308.35146217 478.77264511 308.33586528 482.95127878 C308.33347696 484.46410688 308.33787586 485.97696385 308.34969393 487.48974767 C308.36475778 489.54508723 308.35518129 491.59890746 308.33946705 493.65420914 C308.34044386 494.79608319 308.34142067 495.93795723 308.34242707 497.11443353 C307.70096076 501.18552389 306.55349219 503.1628091 303.84448242 506.2746582 C298.5752572 510.0395188 293.60272674 510.8562023 287.26116943 510.77802277 C286.43040909 510.78383653 285.59964875 510.78965029 284.74371386 510.79564023 C281.96548204 510.81021501 279.18813719 510.79636686 276.40991211 510.78259277 C274.39580204 510.78720268 272.38169534 510.79355619 270.36759567 510.80150175 C264.83705575 510.81820577 259.30679178 510.80994368 253.77625084 510.79755688 C247.8102468 510.78851318 241.84429048 510.80247276 235.8782959 510.81347656 C224.86791608 510.83024498 213.85761832 510.82877824 202.84723532 510.81783069 C192.67553189 510.80776674 182.50386071 510.80514246 172.33215332 510.80992126 C171.65732701 510.81022681 170.98250069 510.81053235 170.2872251 510.81084714 C167.54785524 510.81209251 164.80848539 510.81336611 162.06911556 510.8146862 C136.37398838 510.82692102 110.67891722 510.81583024 84.98379868 510.79429861 C62.157382 510.77531631 39.33105458 510.77701482 16.50463867 510.79614258 C-9.14361821 510.81756312 -34.79182559 510.82605332 -60.44009018 510.81369352 C-63.17445627 510.81241066 -65.90882237 510.8111593 -68.64318848 510.80992126 C-69.31645452 510.80960496 -69.98972057 510.80928865 -70.68338862 510.80896275 C-80.84846895 510.80441369 -91.01351349 510.80973241 -101.17858887 510.81983948 C-112.7372534 510.8312749 -124.29581765 510.82803553 -135.85447025 510.8067165 C-141.75315394 510.79619583 -147.65165636 510.79210177 -153.55033875 510.80531311 C-158.94886566 510.81722148 -164.34704308 510.81069979 -169.74553823 510.7894029 C-171.69966457 510.78493029 -173.65382036 510.78721784 -175.6079278 510.79690605 C-178.26310715 510.80906151 -180.91708782 510.7966036 -183.57220459 510.77802277 C-184.33182228 510.78738743 -185.09143996 510.7967521 -185.87407637 510.80640054 C-191.34509077 510.72982188 -195.66700261 509.48187406 -200.15551758 506.2746582 C-203.78300813 502.1058367 -204.65576795 499.13075059 -204.65888214 493.66538239 C-204.6646959 493.02374002 -204.67050967 492.38209765 -204.67649961 491.72101158 C-204.69108125 489.57399862 -204.67722448 487.42813226 -204.66345215 485.28112793 C-204.66806183 483.72517008 -204.6744152 482.16921658 -204.68236113 480.61327219 C-204.6990685 476.3399001 -204.69080177 472.06688505 -204.67841625 467.79351163 C-204.66937383 463.18402762 -204.68333148 458.57460543 -204.69433594 453.96513367 C-204.71213437 444.93608904 -204.70827527 435.90717732 -204.69668537 426.87812746 C-204.68765654 419.54087696 -204.68642467 412.20366375 -204.69078064 404.8664093 C-204.69139357 403.82264339 -204.6920065 402.77887748 -204.69263801 401.7034823 C-204.69391689 399.58317688 -204.69521375 397.46287147 -204.69652838 395.34256607 C-204.70793805 375.45446021 -204.69481438 355.56642807 -204.67332691 335.6783343 C-204.65545558 318.60868008 -204.65855958 301.53913467 -204.67700195 284.46948242 C-204.6984018 264.65316714 -204.70683938 244.83691648 -204.6945529 225.02059126 C-204.69327868 222.90802988 -204.6920212 220.7954685 -204.69078064 218.6829071 C-204.69016354 217.64345173 -204.68954644 216.60399636 -204.68891063 215.53304234 C-204.68545508 208.20351576 -204.69129051 200.87403013 -204.70069885 193.54450989 C-204.71191037 184.61381299 -204.70889661 175.68325675 -204.68757588 166.75257599 C-204.67705406 162.19486252 -204.67296287 157.63738367 -204.68617249 153.07967186 C-204.69807884 148.90857956 -204.69156308 144.73793968 -204.67026228 140.56688851 C-204.66578873 139.05688143 -204.66807939 137.54683625 -204.67776543 136.03685361 C-204.68991724 133.98533581 -204.6774697 131.93537064 -204.65888214 129.88393402 C-204.65823273 128.74422826 -204.65758332 127.6045225 -204.65691423 126.43028021 C-203.81948019 121.15975187 -201.25301995 118.11533926 -197.09202576 114.92803955 C-192.31414324 112.48358405 -187.42750956 112.74592053 -182.17138672 112.82055664 C-181.0877182 112.81997253 -180.00404968 112.81938843 -178.88754272 112.81878662 C-175.32158887 112.82156339 -171.75648087 112.85263762 -168.19067383 112.8840332 C-165.71203569 112.891497 -163.23339164 112.89718928 -160.75474548 112.90118408 C-154.24282432 112.91642927 -147.73126213 112.95570218 -141.21948242 113 C-134.56997449 113.04314863 -127.92036182 113.05920021 -121.27075195 113.0793457 C-108.23218768 113.12219692 -95.19387176 113.18966235 -82.15551758 113.2746582 C-82.16551033 112.39714653 -82.16551033 112.39714653 -82.17570496 111.50190735 C-82.2426424 105.35256508 -82.28755763 99.20332814 -82.3203125 93.05371094 C-82.33529706 90.76590768 -82.3556917 88.47813263 -82.38183594 86.19042969 C-82.70971649 56.73904124 -82.70971649 56.73904124 -75.46801758 43.1496582 C-74.94473877 42.14310181 -74.94473877 42.14310181 -74.41088867 41.11621094 C-64.52783614 22.56829083 -49.82714146 10.35976374 -30.03051758 3.2824707 C-20.23379826 0.4572587 -10.12924543 -0.02194099 0 0 Z M-40.94848633 46.6340332 C-46.11215454 52.77288368 -46.11215454 52.77288368 -48.15551758 60.2746582 C17.84448242 60.2746582 83.84448242 60.2746582 151.84448242 60.2746582 C149.84201459 54.26725471 147.79516877 50.9953159 143.84448242 46.2746582 C143.08844727 45.35620117 143.08844727 45.35620117 142.31713867 44.41918945 C134.47647147 35.73502749 123.41903793 31.83318928 111.95647049 31.08653831 C108.7472251 31.00934307 105.54342028 30.99292059 102.33325195 31 C100.51654999 30.9923336 100.51654999 30.9923336 98.66314697 30.98451233 C95.36960234 30.97306491 92.0762153 30.9705313 88.78265619 30.97307563 C86.01959132 30.97415287 83.25654911 30.96924288 80.49348915 30.96447021 C73.96772843 30.95341286 67.44202529 30.95291623 60.91625977 30.95898438 C54.21450463 30.96502094 47.51295962 30.95271262 40.81124032 30.93141431 C35.02914453 30.91372349 29.24711517 30.90780868 23.46499336 30.91105205 C20.02402957 30.91285322 16.5832157 30.91034675 13.14227676 30.89633751 C9.29952305 30.88392501 5.45724868 30.89079416 1.61450195 30.90234375 C-0.06450699 30.89087814 -0.06450699 30.89087814 -1.7774353 30.87918091 C-17.32299558 30.98183443 -30.15079927 35.2752065 -40.94848633 46.6340332 Z M-51.15551758 91.2746582 C-51.15551758 98.5346582 -51.15551758 105.7946582 -51.15551758 113.2746582 C16.82448242 113.2746582 84.80448242 113.2746582 154.84448242 113.2746582 C154.84448242 106.0146582 154.84448242 98.7546582 154.84448242 91.2746582 C86.86448242 91.2746582 18.88448242 91.2746582 -51.15551758 91.2746582 Z M-169.15551758 144.2746582 C-167.96020081 150.84890042 -166.76714037 157.27640747 -165.1628418 163.73779297 C-164.97336597 164.51246005 -164.78389015 165.28712713 -164.58867264 166.08526897 C-163.96556974 168.62962742 -163.33788141 171.17283076 -162.71020508 173.71606445 C-162.26278238 175.53969863 -161.81567708 177.36341071 -161.36886597 179.18719482 C-160.17345413 184.06346297 -158.97424512 188.93878959 -157.77427673 193.81393814 C-155.7758086 201.93727877 -153.78439865 210.06235534 -151.79180908 218.18713951 C-151.28861181 220.23864794 -150.78527473 222.29012208 -150.28179932 224.34156227 C-146.89767527 238.13053268 -143.53738082 251.92496209 -140.21020508 265.7277832 C-139.83379009 267.28812621 -139.45735608 268.84846462 -139.0809021 270.40879822 C-137.51413352 276.90474183 -135.94951257 283.40118034 -134.39245033 289.89945793 C-133.91784489 291.8777337 -133.44160238 293.85560666 -132.96463013 295.83331299 C-132.39330903 298.20274405 -131.82478842 300.57285302 -131.25973511 302.94378662 C-131.00974762 303.97763489 -130.75976013 305.01148315 -130.50219727 306.07666016 C-130.28875671 306.96658157 -130.07531616 307.85650299 -129.85540771 308.77339172 C-129.12477247 311.38453502 -128.29957148 313.81512344 -127.15551758 316.2746582 C-124.44150464 317.63166467 -122.30705441 317.3870443 -119.27270508 317.37231445 C-117.52280273 317.36748047 -117.52280273 317.36748047 -115.73754883 317.36254883 C-114.51422852 317.35416992 -113.2909082 317.34579102 -112.03051758 317.3371582 C-110.18393555 317.33039063 -110.18393555 317.33039063 -108.30004883 317.32348633 C-105.25182366 317.3116715 -102.20369444 317.29519848 -99.15551758 317.2746582 C-99.14617187 315.97318848 -99.13682617 314.67171875 -99.12719727 313.33081055 C-99.08723711 308.48866925 -99.02146101 303.64715928 -98.94799805 298.80541992 C-98.91982345 296.71240364 -98.89859149 294.61928166 -98.88452148 292.52612305 C-98.86304363 289.51206483 -98.8163677 286.49927283 -98.76489258 283.4855957 C-98.76366394 282.55411713 -98.7624353 281.62263855 -98.76116943 280.66293335 C-98.63601082 275.07445413 -98.02540739 271.61229124 -94.15551758 267.2746582 C-90.09601355 264.22697798 -86.63536294 263.8381317 -81.70654297 263.87060547 C-80.97417923 263.86374222 -80.24181549 263.85687897 -79.48725891 263.84980774 C-77.07569782 263.83156464 -74.66478886 263.83537354 -72.25317383 263.84106445 C-70.57075286 263.83650135 -68.88833376 263.83119539 -67.20591736 263.82518005 C-63.6829368 263.8162538 -60.16018299 263.81866638 -56.63720703 263.82861328 C-52.13009366 263.84010091 -47.62376401 263.81989264 -43.11675358 263.79069614 C-39.64309241 263.77231959 -36.16961854 263.7726295 -32.69592094 263.77833366 C-31.03459003 263.77848671 -29.37324629 263.7724562 -27.71196175 263.76004219 C-25.38544167 263.74510626 -23.06036276 263.7558267 -20.73388672 263.77294922 C-19.71204285 263.75844727 -19.71204285 263.75844727 -18.66955566 263.74365234 C-13.72668039 263.81954473 -10.87945007 265.05872408 -7.15551758 268.2746582 C0.17326889 282.93223114 -3.53652304 300.89142316 -3.15551758 317.2746582 C36.44448242 317.2746582 76.04448242 317.2746582 116.84448242 317.2746582 C117.17448242 302.7546582 117.50448242 288.2346582 117.84448242 273.2746582 C122.66396381 266.04543613 122.66396381 266.04543613 126.84448242 264.2746582 C129.41050084 263.98599008 131.73136025 263.85372497 134.29345703 263.87060547 C135.02582077 263.86374222 135.75818451 263.85687897 136.51274109 263.84980774 C138.92430218 263.83156464 141.33521114 263.83537354 143.74682617 263.84106445 C145.42924714 263.83650135 147.11166624 263.83119539 148.79408264 263.82518005 C152.3170632 263.8162538 155.83981701 263.81866638 159.36279297 263.82861328 C163.86990634 263.84010091 168.37623599 263.81989264 172.88324642 263.79069614 C176.35690759 263.77231959 179.83038146 263.7726295 183.30407906 263.77833366 C184.96540997 263.77848671 186.62675371 263.7724562 188.28803825 263.76004219 C190.61455833 263.74510626 192.93963724 263.7558267 195.26611328 263.77294922 C196.28795715 263.75844727 196.28795715 263.75844727 197.33044434 263.74365234 C202.25566843 263.81927371 205.04596095 265.20779469 208.84448242 268.2746582 C212.40613495 273.3484443 212.31421051 278.28947954 212.35620117 284.2668457 C212.38312798 285.68575607 212.38312798 285.68575607 212.41059875 287.1333313 C212.4645488 290.13872899 212.49854846 293.14396924 212.53198242 296.1496582 C212.56516899 298.19395087 212.59965989 300.2382228 212.63549805 302.2824707 C212.72026658 307.27975268 212.78715082 312.2769892 212.84448242 317.2746582 C215.94833453 317.39079024 219.05162904 317.4618785 222.15698242 317.5246582 C223.03805664 317.55817383 223.91913086 317.59168945 224.8269043 317.6262207 C225.67446289 317.63911133 226.52202148 317.65200195 227.39526367 317.6652832 C228.17554932 317.68623047 228.95583496 317.70717773 229.75976562 317.72875977 C231.98581828 317.4574087 231.98581828 317.4574087 233.39237118 315.54256439 C234.9275418 313.14493613 235.54705813 311.30232387 236.16297913 308.53405762 C236.37983368 307.58244751 236.59668823 306.6308374 236.82011414 305.65039062 C237.15907463 304.09251831 237.15907463 304.09251831 237.50488281 302.50317383 C237.75260437 301.40283813 238.00032593 300.30250244 238.2555542 299.16882324 C239.07720758 295.5082296 239.88462231 291.84464412 240.69213867 288.1809082 C241.26834783 285.60139844 241.84536041 283.02208154 242.42344666 280.44299316 C243.79707727 274.30658836 245.16062277 268.16798893 246.52045101 262.02851248 C248.17697786 254.55145495 249.84538255 247.07705975 251.5144043 239.6027832 C252.10950106 236.93743994 252.704506 234.2720762 253.29940796 231.60668945 C253.44579566 230.95083107 253.59218337 230.29497269 253.74300706 229.61923981 C254.77024867 225.01536362 255.79427237 220.41077855 256.81704712 215.8059082 C259.49137444 203.77163301 262.18247265 191.74202624 264.94555664 179.7277832 C265.30408108 178.16590397 265.30408108 178.16590397 265.66984844 176.57247162 C266.77221837 171.77249582 267.88007821 166.97391843 268.99830627 162.1776123 C269.38139157 160.51534475 269.76429259 158.85303472 270.14697266 157.19067383 C270.40863 156.08369141 270.40863 156.08369141 270.67557335 154.9543457 C271.53086332 151.2137025 271.84448242 148.16796349 271.84448242 144.2746582 C126.31448242 144.2746582 -19.21551758 144.2746582 -169.15551758 144.2746582 Z M-68.15551758 294.2746582 C-68.15551758 312.4246582 -68.15551758 330.5746582 -68.15551758 349.2746582 C-56.93551758 349.2746582 -45.71551758 349.2746582 -34.15551758 349.2746582 C-34.15551758 331.1246582 -34.15551758 312.9746582 -34.15551758 294.2746582 C-45.37551758 294.2746582 -56.59551758 294.2746582 -68.15551758 294.2746582 Z M147.84448242 294.2746582 C147.84448242 312.4246582 147.84448242 330.5746582 147.84448242 349.2746582 C159.06448242 349.2746582 170.28448242 349.2746582 181.84448242 349.2746582 C181.84448242 331.1246582 181.84448242 312.9746582 181.84448242 294.2746582 C170.62448242 294.2746582 159.40448242 294.2746582 147.84448242 294.2746582 Z M-173.15551758 262.2746582 C-173.15551758 333.8846582 -173.15551758 405.4946582 -173.15551758 479.2746582 C-24.65551758 479.2746582 123.84448242 479.2746582 276.84448242 479.2746582 C276.84448242 409.6446582 276.84448242 340.0146582 276.84448242 268.2746582 C276.51448242 268.2746582 276.18448242 268.2746582 275.84448242 268.2746582 C275.69272049 268.96877304 275.54095856 269.66288788 275.38459778 270.3780365 C273.94357508 276.95657456 272.48867625 283.53187551 271.01857471 290.10398006 C270.26346795 293.48193702 269.51355643 296.86086612 268.77587891 300.24267578 C267.92526804 304.14108415 267.05143367 308.03397658 266.17651367 311.92700195 C265.91796097 313.1273558 265.65940826 314.32770966 265.39302063 315.56443787 C263.04897101 325.85099758 259.38890396 334.66916309 250.84448242 341.2746582 C244.35319458 345.14138214 238.75581965 347.30987437 231.20385742 347.59106445 C230.13393555 347.63295898 229.06401367 347.67485352 227.96166992 347.71801758 C226.85049805 347.75733398 225.73932617 347.79665039 224.59448242 347.8371582 C223.4678418 347.8803418 222.34120117 347.92352539 221.18041992 347.96801758 C218.40189288 348.07397836 215.62327852 348.17604962 212.84448242 348.2746582 C212.84083679 348.92230637 212.83719116 349.56995453 212.83343506 350.23722839 C212.79131732 357.03578368 212.72177042 363.83368214 212.63696289 370.63183594 C212.60890145 373.16204224 212.58761395 375.69233379 212.57348633 378.22265625 C212.55185097 381.87975245 212.50509448 385.53583945 212.45385742 389.19262695 C212.45262878 390.30671432 212.45140015 391.4208017 212.45013428 392.56864929 C212.20089265 406.22150201 207.97660297 418.91404359 198.59448242 429.0246582 C188.57717904 438.35946399 176.38408348 442.2746582 162.84448242 442.2746582 C148.64239067 441.12118882 137.80656921 435.84549073 128.09448242 425.4621582 C110.46183064 404.31115827 117.30071758 373.36759212 116.84448242 348.2746582 C77.24448242 348.2746582 37.64448242 348.2746582 -3.15551758 348.2746582 C-3.48551758 365.7646582 -3.81551758 383.2546582 -4.15551758 401.2746582 C-8.20557594 416.12487218 -13.28314395 427.71914018 -26.68286133 435.9934082 C-40.06771981 442.92900628 -53.92972704 443.68809833 -68.22583008 439.34106445 C-79.78170791 435.07041395 -88.11524304 426.90484242 -94.15551758 416.2746582 C-97.83739398 407.82350581 -98.75523556 399.99386354 -98.76489258 390.8527832 C-98.78142883 389.62678406 -98.79796509 388.40078491 -98.81500244 387.13763428 C-98.86313486 383.26658953 -98.88477686 379.39593661 -98.90551758 375.5246582 C-98.93370618 372.88140969 -98.96363759 370.23817915 -98.99536133 367.5949707 C-99.06888452 361.15493687 -99.12072979 354.71501165 -99.15551758 348.2746582 C-100.03699463 348.2653125 -100.91847168 348.2559668 -101.82666016 348.24633789 C-105.15032363 348.20188 -108.47278292 348.14007502 -111.79589844 348.06713867 C-113.22416744 348.03920579 -114.65258308 348.01785605 -116.08105469 348.00366211 C-128.44474226 347.87356368 -139.94032993 346.32782057 -149.15551758 337.2746582 C-157.28135482 327.79137251 -159.59662383 315.14540817 -162.38989258 303.2902832 C-162.67278137 302.10867615 -162.95567017 300.92706909 -163.24713135 299.70965576 C-164.13825483 295.98249398 -165.0220095 292.25363167 -165.90551758 288.5246582 C-166.51310148 285.9776665 -167.12116994 283.43079034 -167.72973633 280.8840332 C-169.21059591 274.68223163 -170.68543054 268.47902163 -172.15551758 262.2746582 C-172.48551758 262.2746582 -172.81551758 262.2746582 -173.15551758 262.2746582 Z M-68.15551758 380.2746582 C-68.21739258 383.2859082 -68.27926758 386.2971582 -68.34301758 389.3996582 C-68.37032959 390.33696777 -68.3976416 391.27427734 -68.42578125 392.23999023 C-68.48392085 398.11021411 -67.79353982 402.44868526 -63.62036133 406.91918945 C-57.63249459 411.49814637 -53.64526693 412.0091502 -46.15551758 411.2746582 C-40.80599638 409.5663257 -37.79319553 406.1442175 -35.15551758 401.2746582 C-33.45584441 394.47596552 -34.15551758 387.28259022 -34.15551758 380.2746582 C-45.37551758 380.2746582 -56.59551758 380.2746582 -68.15551758 380.2746582 Z M147.84448242 380.2746582 C147.76198242 383.2652832 147.67948242 386.2559082 147.59448242 389.3371582 C147.55806641 390.26536377 147.52165039 391.19356934 147.48413086 392.14990234 C147.40560641 398.07659867 148.40320425 401.42558441 151.84448242 406.2746582 C157.24546059 411.1612575 160.70265346 411.62905588 167.86010742 411.55200195 C171.88464124 411.17799423 173.92457406 410.04857115 176.84448242 407.2746582 C180.14835251 402.89926268 181.9810803 399.53495932 181.94213867 394.04418945 C181.93964111 393.32078369 181.93714355 392.59737793 181.93457031 391.85205078 C181.92546631 390.93963623 181.9163623 390.02722168 181.90698242 389.0871582 C181.88635742 386.1790332 181.86573242 383.2709082 181.84448242 380.2746582 C170.62448242 380.2746582 159.40448242 380.2746582 147.84448242 380.2746582 Z " fill="#000000" transform="translate(204.155517578125,0.725341796875)"/>
</svg>
